###  /home/johan/detectDamagedAudio/data/frogs-01-byte-missing-at-offset-811537.wav
General
Complete name                            : /home/johan/detectDamagedAudio/data/frogs-01-byte-missing-at-offset-811537.wav
Format                                   : Wave
File size                                : 1.96 MiB
Duration                                 : 11s 626ms
Overall bit rate mode                    : Constant
Overall bit rate                         : 1 411 Kbps
Track name                               : untitled
Writing application                      : Lavf57.56.100

Audio
Format                                   : PCM
Format settings, Endianness              : Little
Format settings, Sign                    : Signed
Codec ID                                 : 1
Duration                                 : 11s 626ms
Bit rate mode                            : Constant
Bit rate                                 : 1 411.2 Kbps
Channel(s)                               : 2 channels
Sampling rate                            : 44.1 KHz
Bit depth                                : 16 bits
Stream size                              : 1.96 MiB (100%)


###  /home/johan/detectDamagedAudio/data/frogs-01-last-2032-bytes-missing.wav
General
Complete name                            : /home/johan/detectDamagedAudio/data/frogs-01-last-2032-bytes-missing.wav
Format                                   : Wave
File size                                : 1.95 MiB
Duration                                 : 11s 615ms
Overall bit rate mode                    : Constant
Overall bit rate                         : 1 411 Kbps
Track name                               : untitled
Writing application                      : Lavf57.56.100

Audio
Format                                   : PCM
Format settings, Endianness              : Little
Format settings, Sign                    : Signed
Codec ID                                 : 1
Duration                                 : 11s 615ms
Bit rate mode                            : Constant
Bit rate                                 : 1 411.2 Kbps
Channel(s)                               : 2 channels
Sampling rate                            : 44.1 KHz
Bit depth                                : 16 bits
Stream size                              : 1.95 MiB (100%)


###  /home/johan/detectDamagedAudio/data/frogs-01-last-byte-missing.wav
General
Complete name                            : /home/johan/detectDamagedAudio/data/frogs-01-last-byte-missing.wav
Format                                   : Wave
File size                                : 1.96 MiB
Duration                                 : 11s 626ms
Overall bit rate mode                    : Constant
Overall bit rate                         : 1 411 Kbps
Track name                               : untitled
Writing application                      : Lavf57.56.100

Audio
Format                                   : PCM
Format settings, Endianness              : Little
Format settings, Sign                    : Signed
Codec ID                                 : 1
Duration                                 : 11s 626ms
Bit rate mode                            : Constant
Bit rate                                 : 1 411.2 Kbps
Channel(s)                               : 2 channels
Sampling rate                            : 44.1 KHz
Bit depth                                : 16 bits
Stream size                              : 1.96 MiB (100%)


###  /home/johan/detectDamagedAudio/data/frogs-01.wav
General
Complete name                            : /home/johan/detectDamagedAudio/data/frogs-01.wav
Format                                   : Wave
File size                                : 1.96 MiB
Duration                                 : 11s 626ms
Overall bit rate mode                    : Constant
Overall bit rate                         : 1 411 Kbps
Track name                               : untitled
Writing application                      : Lavf57.56.100

Audio
Format                                   : PCM
Format settings, Endianness              : Little
Format settings, Sign                    : Signed
Codec ID                                 : 1
Duration                                 : 11s 626ms
Bit rate mode                            : Constant
Bit rate                                 : 1 411.2 Kbps
Channel(s)                               : 2 channels
Sampling rate                            : 44.1 KHz
Bit depth                                : 16 bits
Stream size                              : 1.96 MiB (100%)


